<?xml version="1.0" standalone="no"?>
<!DOCTYPE svg PUBLIC "-//W3C//DTD SVG 20010904//EN"
 "http://www.w3.org/TR/2001/REC-SVG-20010904/DTD/svg10.dtd">
<svg version="1.0" xmlns="http://www.w3.org/2000/svg"
 width="400.000000pt" height="400.000000pt" viewBox="0 0 400.000000 400.000000"
 preserveAspectRatio="xMidYMid meet">
<metadata>
Created by potrace 1.11, written by Peter Selinger 2001-2013
</metadata>
<g transform="translate(0.000000,400.000000) scale(0.100000,-0.100000)"
fill="#000000" stroke="none">
<path d="M1775 3989 c-105 -13 -141 -19 -173 -28 -18 -5 -35 -10 -37 -10 -31
1 -198 -49 -310 -93 -195 -77 -454 -237 -608 -378 -4 -3 18 -33 49 -65 289
-296 492 -702 559 -1120 15 -88 19 -125 24 -197 1 -17 23 -18 321 -18 l320 0
0 960 0 961 -47 -3 c-27 -2 -70 -6 -98 -9z"/>
<path d="M2080 3040 l0 -960 320 0 c176 0 320 3 321 8 0 4 2 34 3 67 4 59 14
147 22 189 80 422 245 747 527 1040 96 101 99 85 -30 188 -258 209 -602 361
-910 403 -21 3 -52 8 -69 10 -16 3 -65 7 -107 10 l-77 5 0 -960z"/>
<path d="M495 3322 c-63 -78 -188 -248 -196 -267 -5 -11 -18 -33 -29 -50 -68
-104 -157 -318 -200 -480 -33 -121 -33 -124 -45 -195 -4 -25 -9 -53 -11 -63
-2 -10 -6 -57 -9 -103 l-6 -84 561 0 561 0 -6 58 c-3 31 -8 71 -10 87 -3 17
-7 48 -11 70 -52 343 -239 720 -492 989 -76 81 -74 80 -107 38z"/>
<path d="M3428 3317 c-97 -90 -230 -256 -300 -378 -108 -186 -194 -420 -224
-613 -3 -21 -7 -47 -9 -57 -2 -10 -7 -56 -10 -103 l-7 -86 562 0 561 0 -6 83
c-9 123 -39 299 -65 382 -97 312 -221 536 -450 807 -3 5 -27 -11 -52 -35z"/>
<path d="M5 1855 c9 -110 13 -155 20 -185 3 -14 8 -38 11 -55 18 -104 111
-394 135 -419 5 -6 9 -15 9 -21 0 -15 91 -182 138 -255 47 -72 153 -209 185
-238 l25 -24 47 43 c110 101 255 295 337 449 73 138 153 359 173 480 3 19 10
60 15 90 6 30 12 91 15 135 l4 80 -560 0 -560 0 6 -80z"/>
<path d="M2884 1928 c-11 -18 21 -267 50 -383 61 -250 205 -531 365 -715 46
-52 164 -170 170 -170 15 0 141 164 226 293 90 139 198 382 236 531 41 164 65
310 64 401 l0 50 -553 0 c-305 0 -556 -3 -558 -7z"/>
<path d="M1280 1898 c-1 -33 -8 -87 -31 -220 -67 -404 -275 -810 -562 -1103
l-49 -49 23 -19 c13 -10 38 -31 54 -46 163 -145 410 -284 640 -360 106 -34
145 -45 255 -66 73 -15 154 -25 228 -30 l82 -5 0 960 0 960 -320 0 -320 0 0
-22z"/>
<path d="M2080 959 l0 -960 68 5 c103 9 169 18 232 31 14 3 34 7 45 9 157 32
354 104 505 185 36 19 75 39 87 45 13 6 23 14 23 19 0 4 5 7 11 7 14 0 126 79
214 149 38 31 75 61 82 66 11 8 0 25 -51 78 -292 304 -471 650 -551 1067 -8
42 -20 165 -24 238 l-1 22 -320 0 -320 0 0 -961z"/>
</g>
</svg>
